<svg width="12" height="10" viewBox="0 0 12 10" fill="none" xmlns="http://www.w3.org/2000/svg">
<path d="M0.674537 5.92426L0.655805 5.92016L8.68566 5.92016L6.16136 8.45002C6.03776 8.57353 5.96995 8.74085 5.96995 8.91646C5.96995 9.09206 6.03776 9.25821 6.16136 9.38202L6.55415 9.77499C6.67766 9.8985 6.84224 9.9668 7.01775 9.9668C7.19336 9.9668 7.35805 9.89899 7.48156 9.77548L11.8087 5.44875C11.9327 5.32475 12.0005 5.15958 12 4.98387C12.0005 4.80719 11.9327 4.64192 11.8087 4.51811L7.48156 0.190994C7.35805 0.0675789 7.19346 -0.000322762 7.01776 -0.000322777C6.84224 -0.000322793 6.67766 0.067677 6.55415 0.190994L6.16137 0.58397C6.03776 0.707286 5.96995 0.871969 5.96995 1.04758C5.96995 1.22309 6.03776 1.37909 6.16137 1.50251L8.71414 4.0465L0.665561 4.0465C0.303903 4.0465 4.90318e-07 4.35821 4.58718e-07 4.71967L4.10128e-07 5.27548C3.78528e-07 5.63694 0.312879 5.92426 0.674537 5.92426Z" fill="white"/>
</svg>
