<svg width="45" height="31" viewBox="0 0 45 31" fill="none" xmlns="http://www.w3.org/2000/svg">
<path d="M42.482 27.5033C42.5349 27.3452 42.5649 27.1757 42.5649 26.9995V8.49717C42.5649 7.62007 41.8535 6.90916 40.9764 6.90916H32.1354V26.6029C32.1354 26.9191 32.0783 27.2214 31.9774 27.5033H30.9403C30.9931 27.3452 31.0231 27.1757 31.0231 26.9995V1.58801C31.0231 0.710915 30.3117 0 29.4346 0H15.5644C14.6873 0 13.9764 0.710915 13.9764 1.58801V26.9995C13.9764 27.1757 14.0064 27.3452 14.0593 27.5033H13.0226C12.9217 27.2214 12.8646 26.9191 12.8646 26.6029V6.90916H4.23549C3.35839 6.90916 2.64748 7.62007 2.64748 8.49717V26.9995C2.64748 27.1757 2.67748 27.3452 2.72986 27.5033H0V30.786H45V27.5033H42.482ZM7.41151 21.017H5.13497V18.7409H7.41151V21.017ZM7.41151 17.0205H5.13497V14.744H7.41151V17.0205ZM7.41151 13.156H5.13497V10.8794H7.41151V13.156ZM10.9589 21.017H8.6824V18.7409H10.9589V21.017ZM10.9589 17.0205H8.6824V14.744H10.9589V17.0205ZM10.9589 13.156H8.6824V10.8794H10.9589V13.156ZM26.0339 27.3971H19.3499V19.0585H26.0339V27.3971ZM22.4998 11.9113C19.408 11.9113 16.9015 9.40474 16.9015 6.313C16.9015 3.22078 19.4085 0.714248 22.4998 0.714248C25.592 0.714248 28.0985 3.22078 28.0985 6.313C28.0985 9.40522 25.592 11.9113 22.4998 11.9113ZM36.9528 21.017H34.6767V18.7409H36.9528V21.017ZM36.9528 17.0205H34.6767V14.744H36.9528V17.0205ZM36.9528 13.156H34.6767V10.8794H36.9528V13.156ZM40.4998 21.017H38.2237V18.7409H40.4998V21.017ZM40.4998 17.0205H38.2237V14.744H40.4998V17.0205ZM40.4998 13.156H38.2237V10.8794H40.4998V13.156ZM23.8892 4.92355H26.0334V7.70245H23.8892V9.84758H21.1103V7.70245H18.9661V4.92355H21.1103V2.77938H23.8892V4.92355Z" fill="#00733D"/>
</svg>
