<svg width="15" height="16" viewBox="0 0 15 16" fill="none" xmlns="http://www.w3.org/2000/svg">
<path d="M14.6067 11.0316L12.509 8.93395C11.7598 8.18477 10.4862 8.48447 10.1865 9.45838C9.96175 10.1327 9.21257 10.5073 8.53831 10.3574C7.03996 9.9828 5.01718 8.03494 4.64259 6.46166C4.41783 5.78737 4.86734 5.03819 5.5416 4.81347C6.51553 4.5138 6.81521 3.2402 6.06603 2.49102L3.96833 0.393319C3.36898 -0.131106 2.46997 -0.131106 1.94555 0.393319L0.522108 1.81676C-0.901331 3.31511 0.671943 7.28576 4.19308 10.8069C7.71422 14.328 11.6849 15.9763 13.1832 14.4779L14.6067 13.0544C15.1311 12.4551 15.1311 11.5561 14.6067 11.0316Z" fill="#092D60"/>
</svg>
