<svg width="20" height="21" viewBox="0 0 20 21" fill="none" xmlns="http://www.w3.org/2000/svg">
<path d="M19.522 3.83192C19.1476 3.4042 18.6139 3.16862 18.0193 3.16862H3.64472L3.50004 2.08391C3.34411 0.915378 2.53058 0 1.64786 0H0.59166C0.26486 0 0 0.26486 0 0.59166C0 0.918459 0.26486 1.18332 0.59166 1.18332H1.64786C1.83769 1.18332 2.23968 1.58469 2.32704 2.2403L4.02067 14.9428C4.09524 15.5027 4.3829 16.0269 4.83066 16.4189C5.16269 16.7096 5.55513 16.903 5.96621 16.9839C5.79873 17.2919 5.70351 17.6447 5.70351 18.0193C5.70351 19.2192 6.67975 20.1953 7.87955 20.1953C9.07936 20.1953 10.0556 19.2192 10.0556 18.0193C10.0556 17.6618 9.96839 17.3245 9.81493 17.0267H12.9153C12.7618 17.3245 12.6746 17.6618 12.6746 18.0193C12.6746 19.2192 13.6509 20.1953 14.8507 20.1953C16.0505 20.1953 17.0267 19.2192 17.0267 18.0193C17.0267 17.6618 16.9395 17.3245 16.786 17.0267H18.3362C18.6629 17.0267 18.9279 16.7617 18.9279 16.435C18.9279 16.1082 18.6629 15.8434 18.3362 15.8434H6.40087C5.82276 15.8434 5.26993 15.3593 5.19351 14.7863L5.06978 13.8579H9.67472C9.67487 13.8579 9.67502 13.8581 9.67518 13.8581C9.67533 13.8581 9.67549 13.8579 9.67579 13.8579H13.4769C13.4771 13.8579 13.4772 13.8581 13.4775 13.8581C13.4777 13.8581 13.4777 13.8579 13.4778 13.8579H16.7518C17.3167 13.8579 17.8743 13.6421 18.322 13.2503C18.7698 12.8583 19.0575 12.3339 19.132 11.774L19.9807 5.40906C20.0593 4.81972 19.8964 4.25964 19.522 3.83192ZM8.87228 18.0193C8.87228 18.5667 8.42699 19.012 7.87955 19.012C7.33227 19.012 6.88683 18.5667 6.88683 18.0193C6.88683 17.472 7.33227 17.0267 7.87955 17.0267C8.42699 17.0267 8.87228 17.472 8.87228 18.0193ZM15.8434 18.0193C15.8434 18.5667 15.3981 19.012 14.8507 19.012C14.3032 19.012 13.8579 18.5667 13.8579 18.0193C13.8579 17.472 14.3032 17.0267 14.8507 17.0267C15.3981 17.0267 15.8434 17.472 15.8434 18.0193ZM18.6316 4.6114C18.7781 4.77873 18.8407 5.0063 18.8077 5.25252L18.4519 7.92162H14.4262L14.6641 4.35193H18.0193C18.2678 4.35193 18.4852 4.44407 18.6316 4.6114ZM10.2292 12.6746L9.99119 9.10493H13.1613L12.9233 12.6746H10.2292ZM9.9123 7.92162L9.67441 4.35193H13.4781L13.2402 7.92162H9.9123ZM8.48847 4.35193L8.72637 7.92162H4.27829L3.80234 4.35193H8.48847ZM4.43606 9.10493H8.80525L9.0433 12.6746H4.91201L4.43606 9.10493ZM16.7518 12.6746H14.1092L14.3473 9.10493H18.2942L17.9592 11.6176C17.8828 12.1907 17.3298 12.6746 16.7518 12.6746Z" fill="#FF0000"/>
</svg>
