<svg width="45" height="26" viewBox="0 0 45 26" fill="none" xmlns="http://www.w3.org/2000/svg">
<path d="M16.6738 17.716C14.5967 17.716 12.9181 19.4006 12.9181 21.4778C12.9181 23.5488 14.5967 25.2335 16.6738 25.2335C18.751 25.2335 20.4296 23.5488 20.4296 21.4778C20.4295 19.4006 18.751 17.716 16.6738 17.716ZM16.6738 23.3557C15.6352 23.3557 14.7959 22.5102 14.7959 21.4776C14.7959 20.4392 15.6352 19.5998 16.6738 19.5998C17.7124 19.5998 18.5517 20.4392 18.5517 21.4776C18.5516 22.5102 17.7124 23.3557 16.6738 23.3557ZM45 14.9374V18.9478C45 19.9482 44.189 20.7592 43.1885 20.7592H41.2503C40.9001 18.356 38.829 16.5083 36.3292 16.5083C33.8355 16.5083 31.7643 18.356 31.4141 20.7592H21.5901C21.2399 18.356 19.1688 16.5083 16.675 16.5083C14.1813 16.5083 12.1101 18.356 11.76 20.7592H9.33265C8.33221 20.7592 7.52125 19.9482 7.52125 18.9478V14.9374H45ZM36.334 17.716C34.2569 17.716 32.5723 19.4006 32.5723 21.4778C32.5723 23.5488 34.257 25.2335 36.334 25.2335C38.4051 25.2335 40.0897 23.5488 40.0897 21.4778C40.0897 19.4006 38.4051 17.716 36.334 17.716ZM36.334 23.3557C35.2954 23.3557 34.4562 22.5102 34.4562 21.4776C34.4562 20.4392 35.2954 19.5998 36.334 19.5998C37.3665 19.5998 38.2119 20.4392 38.2119 21.4776C38.2119 22.5102 37.3665 23.3557 36.334 23.3557ZM44.2863 10.8989L37.1674 3.85838C36.7145 3.41154 36.1046 3.15794 35.4706 3.15794H31.8779V1.8114C31.8779 0.809117 31.0688 0 30.0665 0H9.3314C8.33507 0 7.52 0.809191 7.52 1.8114V2.09522L0.169118 2.94243L13.1946 4.6386L0 5.94934L13.1481 7.81868L0 8.95868L7.52044 10.3771L7.51993 13.9361H44.9987V12.6137C44.9987 11.9676 44.7391 11.3518 44.2863 10.8989ZM41.1826 11.1343H34.2932C34.1362 11.1343 34.0093 11.0076 34.0093 10.8506V5.53096C34.0093 5.37397 34.1362 5.24713 34.2932 5.24713H35.6035C35.6759 5.24713 35.7484 5.27735 35.8027 5.32566L41.376 10.6453C41.563 10.8204 41.4362 11.1343 41.1826 11.1343Z" fill="#004BA8"/>
</svg>
