<svg width="20" height="15" viewBox="0 0 20 15" fill="none" xmlns="http://www.w3.org/2000/svg">
<path d="M9.01956 7.38693C9.54179 7.7351 10.4581 7.73514 10.9805 7.38689C10.9805 7.38686 10.9807 7.38678 10.9807 7.38674L19.8818 1.45267C19.5898 0.608286 18.7873 0 17.845 0H2.15489C1.2125 0 0.410036 0.608286 0.118042 1.45267L9.01928 7.38678C9.0194 7.38686 9.01948 7.38686 9.01956 7.38693Z" fill="#01BCF6"/>
<path d="M11.6308 8.36185C11.6307 8.36192 11.6306 8.362 11.6305 8.36204C11.1734 8.66677 10.5866 8.81915 10 8.81915C9.41328 8.81915 8.82671 8.66681 8.36956 8.362C8.36948 8.36196 8.36944 8.36192 8.36936 8.36188L0 2.78235V12.8243C0 14.0125 0.966687 14.9791 2.15494 14.9791H17.8451C19.0334 14.9791 20 14.0125 20 12.8243V2.78235L11.6308 8.36185Z" fill="#01BCF6"/>
</svg>
