<svg width="35" height="35" viewBox="0 0 35 35" fill="none" xmlns="http://www.w3.org/2000/svg">
<path d="M17.5 0C7.85011 0 0 7.85011 0 17.5C0 27.1499 7.85011 35 17.5 35C27.1499 35 35 27.1499 35 17.5C35 7.85011 27.1499 0 17.5 0ZM25.1562 18.9582H18.9582V25.1562C18.9582 25.9613 18.3051 26.6145 17.5 26.6145C16.6949 26.6145 16.0418 25.9613 16.0418 25.1562V18.9582H9.84375C9.03866 18.9582 8.38551 18.3051 8.38551 17.5C8.38551 16.6949 9.03866 16.0418 9.84375 16.0418H16.0418V9.84375C16.0418 9.03866 16.6949 8.38551 17.5 8.38551C18.3051 8.38551 18.9582 9.03866 18.9582 9.84375V16.0418H25.1562C25.9613 16.0418 26.6145 16.6949 26.6145 17.5C26.6145 18.3051 25.9613 18.9582 25.1562 18.9582Z" fill="#F26157"/>
</svg>
