<svg width="15" height="16" viewBox="0 0 15 16" fill="none" xmlns="http://www.w3.org/2000/svg">
<path d="M7.5 0C5.0187 0 3 2.0187 3 4.5C3 6.9813 5.0187 9 7.5 9C9.9813 9 12 6.9813 12 4.5C12 2.0187 9.9813 0 7.5 0ZM7.5 8C5.5701 8 4 6.4299 4 4.5C4 2.5701 5.5701 1 7.5 1C9.4299 1 11 2.5701 11 4.5C11 6.4299 9.4299 8 7.5 8Z" fill="#092D60"/>
<path d="M13.0989 10.477C11.8669 9.22604 10.2336 8.53714 8.5 8.53714H6.5C4.7664 8.53714 3.13313 9.22604 1.90113 10.477C0.675167 11.7218 0 13.3649 0 15.1038C0 15.3799 0.223867 15.6038 0.5 15.6038H14.5C14.7761 15.6038 15 15.3799 15 15.1038C15 13.3649 14.3248 11.7218 13.0989 10.477ZM1.022 14.6038C1.2725 11.7676 3.6337 9.53714 6.5 9.53714H8.5C11.3663 9.53714 13.7275 11.7676 13.978 14.6038H1.022Z" fill="#092D60"/>
</svg>
