<svg width="25" height="35" viewBox="0 0 25 35" fill="none" xmlns="http://www.w3.org/2000/svg">
<path d="M24.9836 29.4898L23.1634 9.50631C23.1144 8.95578 22.6534 8.53541 22.1008 8.53541H18.9V6.40156C18.9 4.68594 18.2342 3.07701 17.0286 1.87139C15.8422 0.682833 14.1906 0 12.4984 0C8.96906 0 6.09689 2.87216 6.09689 6.40156V8.53541H2.89611C2.34344 8.53541 1.88253 8.95578 1.83345 9.50631L0.0175459 29.4877C-0.0912805 30.6805 0.309884 31.8691 1.11648 32.7525C1.92308 33.6359 3.07109 34.1416 4.26818 34.1416H20.7308C21.9258 34.1416 23.0738 33.6359 23.8804 32.7546C24.6891 31.8712 25.0882 30.6805 24.9836 29.4898ZM16.7661 8.53541H8.23074V6.40156C8.23074 4.04792 10.1448 2.13385 12.4984 2.13385C13.6294 2.13385 14.7305 2.58623 15.52 3.37789C16.3244 4.18235 16.7661 5.25568 16.7661 6.40156V8.53541Z" fill="#F3007C"/>
</svg>
