<svg width="25" height="33" viewBox="0 0 25 33" fill="none" xmlns="http://www.w3.org/2000/svg">
<path d="M23.8533 0H1.14687C0.513619 0 0 0.513619 0 1.14687V23.5275H7.89355C8.5268 23.5275 9.0402 24.0409 9.0402 24.6742V32.5672H23.8533C24.4864 32.5672 25 32.0538 25 31.4205V1.14687C25 0.513619 24.4864 0 23.8533 0ZM4.93125 5.67613H14.3921C15.0251 5.67613 15.5394 6.19018 15.5394 6.82278C15.5394 7.45625 15.0252 7.97031 14.3921 7.97031H4.93125C4.29778 7.97031 3.7846 7.45625 3.7846 6.82278C3.7846 6.19018 4.29767 5.67613 4.93125 5.67613ZM4.93125 11.3529H14.3921C15.0251 11.3529 15.5394 11.8662 15.5394 12.4993C15.5394 13.1327 15.0252 13.646 14.3921 13.646H4.93125C4.29778 13.646 3.7846 13.1327 3.7846 12.4993C3.7846 11.8662 4.29767 11.3529 4.93125 11.3529ZM4.93125 19.3227C4.29778 19.3227 3.7846 18.8086 3.7846 18.176C3.7846 17.543 4.29778 17.0289 4.93125 17.0289H14.3921C15.0251 17.0289 15.5394 17.543 15.5394 18.176C15.5394 18.8087 15.0252 19.3227 14.3921 19.3227H4.93125ZM20.0688 24.9988H16.2846C15.6511 24.9988 15.1377 24.4855 15.1377 23.8521C15.1377 23.2189 15.6511 22.7055 16.2846 22.7055H20.0688C20.7022 22.7055 21.2156 23.2189 21.2156 23.8521C21.2156 24.4855 20.7023 24.9988 20.0688 24.9988ZM20.0688 19.3227H18.1761C17.5436 19.3227 17.0293 18.8086 17.0293 18.176C17.0293 17.543 17.5436 17.0289 18.1761 17.0289H20.0688C20.7022 17.0289 21.2156 17.543 21.2156 18.176C21.2156 18.8086 20.7023 19.3227 20.0688 19.3227ZM20.0688 13.646H18.1761C17.5436 13.646 17.0293 13.1327 17.0293 12.4993C17.0293 11.8661 17.5436 11.3529 18.1761 11.3529H20.0688C20.7022 11.3529 21.2156 11.8662 21.2156 12.4993C21.2156 13.1328 20.7023 13.646 20.0688 13.646ZM20.0688 7.97031H18.1761C17.5436 7.97031 17.0293 7.45625 17.0293 6.82278C17.0293 6.19018 17.5436 5.67613 18.1761 5.67613H20.0688C20.7022 5.67613 21.2156 6.19018 21.2156 6.82278C21.2156 7.45625 20.7023 7.97031 20.0688 7.97031Z" fill="#BFC8D0"/>
</svg>
